G04 #@! TF.FileFunction,Copper,L1,Top,Signal*
%FSLAX46Y46*%
G04 Gerber Fmt 4.6, Leading zero omitted, Abs format (unit mm)*
G04 Created by KiCad (PCBNEW 4.0.2+dfsg1-stable) date Sat 09 Apr 2016 11:20:45 AM EDT*
%MOMM*%
G01*
G04 APERTURE LIST*
%ADD10C,0.100000*%
%ADD11R,1.727200X1.727200*%
%ADD12O,1.727200X1.727200*%
%ADD13R,0.900000X1.700000*%
%ADD14R,1.700000X0.900000*%
%ADD15R,2.540000X2.540000*%
%ADD16C,2.540000*%
%ADD17C,1.500000*%
%ADD18C,2.000000*%
%ADD19C,0.250000*%
%ADD20C,0.400000*%
G04 APERTURE END LIST*
D10*
D11*
X-3810000Y3810000D03*
D12*
X-3810000Y6350000D03*
X-6350000Y3810000D03*
X-6350000Y6350000D03*
X-8890000Y3810000D03*
X-8890000Y6350000D03*
X-11430000Y3810000D03*
X-11430000Y6350000D03*
X-13970000Y3810000D03*
X-13970000Y6350000D03*
D11*
X6350000Y13970000D03*
D12*
X6350000Y11430000D03*
X8890000Y13970000D03*
X8890000Y11430000D03*
X11430000Y13970000D03*
X11430000Y11430000D03*
X13970000Y13970000D03*
X13970000Y11430000D03*
X16510000Y13970000D03*
X16510000Y11430000D03*
X19050000Y13970000D03*
X19050000Y11430000D03*
X21590000Y13970000D03*
X21590000Y11430000D03*
D11*
X-19050000Y3810000D03*
D12*
X-19050000Y6350000D03*
X-21590000Y3810000D03*
X-21590000Y6350000D03*
X-24130000Y3810000D03*
X-24130000Y6350000D03*
D13*
X-360000Y7620000D03*
X2540000Y7620000D03*
D14*
X6350000Y7620000D03*
X6350000Y4720000D03*
D15*
X16510000Y5080000D03*
D16*
X11430000Y5080000D03*
D17*
X-13208000Y0D03*
X-10668000Y0D03*
X0Y0D03*
X-2540000Y0D03*
X-13208000Y18542000D03*
X-10668000Y18542000D03*
X0Y18542000D03*
X-2540000Y18542000D03*
D18*
X-19050000Y6350000D02*
X-19050000Y12700000D01*
X-19050000Y12700000D02*
X-13208000Y18542000D01*
X-13208000Y18542000D02*
X-10668000Y18542000D01*
X-13208000Y0D02*
X-10668000Y0D01*
D19*
X6350000Y4720000D02*
X11070000Y4720000D01*
X11070000Y4720000D02*
X11430000Y5080000D01*
D20*
X-6350000Y3810000D02*
X-6350000Y2540000D01*
X13970000Y3810000D02*
X13970000Y8890000D01*
X20320000Y8890000D02*
X21590000Y10160000D01*
X-6350000Y2540000D02*
X-5715000Y1905000D01*
X21590000Y10160000D02*
X21590000Y11430000D01*
X-5715000Y1905000D02*
X12065000Y1905000D01*
X12065000Y1905000D02*
X13970000Y3810000D01*
X13970000Y8890000D02*
X20320000Y8890000D01*
X-8890000Y3810000D02*
X-7626399Y5073601D01*
X-7626399Y5073601D02*
X-7626399Y6943731D01*
X-7626399Y6943731D02*
X-6950130Y7620000D01*
X-6950130Y7620000D02*
X-1210000Y7620000D01*
X-1210000Y7620000D02*
X-360000Y7620000D01*
D18*
X-2540000Y18542000D02*
X0Y18542000D01*
D20*
X6350000Y7620000D02*
X6750000Y7620000D01*
X6750000Y7620000D02*
X9036000Y9906000D01*
X19050000Y10795000D02*
X19050000Y11430000D01*
X9036000Y9906000D02*
X18161000Y9906000D01*
X18161000Y9906000D02*
X19050000Y10795000D01*
X2540000Y7620000D02*
X6350000Y7620000D01*
X19050000Y15875000D02*
X18415000Y16510000D01*
X18415000Y16510000D02*
X16510000Y16510000D01*
X19050000Y13970000D02*
X19050000Y15875000D01*
X16510000Y16510000D02*
X-11430000Y16510000D01*
X-11430000Y16510000D02*
X-17018000Y10922000D01*
X-17018000Y10922000D02*
X-17018000Y4578400D01*
X-17018000Y4578400D02*
X-17786400Y3810000D01*
X-17786400Y3810000D02*
X-19050000Y3810000D01*
X-20574000Y508000D02*
X-21590000Y1524000D01*
X-21590000Y1524000D02*
X-21590000Y3810000D01*
X-17526000Y508000D02*
X-20574000Y508000D01*
X-16002000Y2032000D02*
X-17526000Y508000D01*
X-16002000Y9144000D02*
X-16002000Y2032000D01*
X-12439601Y12706399D02*
X-16002000Y9144000D01*
X21590000Y13970000D02*
X20326399Y12706399D01*
X20326399Y12706399D02*
X-12439601Y12706399D01*
D18*
X16510000Y5080000D02*
X16510000Y3283949D01*
X0Y0D02*
X-2540000Y0D01*
X13226051Y0D02*
X1060660Y0D01*
X16510000Y3283949D02*
X13226051Y0D01*
X1060660Y0D02*
X0Y0D01*
M02*
