G04 #@! TF.FileFunction,Soldermask,Bot*
%FSLAX46Y46*%
G04 Gerber Fmt 4.6, Leading zero omitted, Abs format (unit mm)*
G04 Created by KiCad (PCBNEW 4.0.2+dfsg1-stable) date Sat 09 Apr 2016 11:20:45 AM EDT*
%MOMM*%
G01*
G04 APERTURE LIST*
%ADD10C,0.100000*%
%ADD11R,1.727200X1.727200*%
%ADD12O,1.727200X1.727200*%
%ADD13R,2.540000X2.540000*%
%ADD14C,2.540000*%
%ADD15C,1.500000*%
G04 APERTURE END LIST*
D10*
D11*
X-3810000Y3810000D03*
D12*
X-3810000Y6350000D03*
X-6350000Y3810000D03*
X-6350000Y6350000D03*
X-8890000Y3810000D03*
X-8890000Y6350000D03*
X-11430000Y3810000D03*
X-11430000Y6350000D03*
X-13970000Y3810000D03*
X-13970000Y6350000D03*
D11*
X6350000Y13970000D03*
D12*
X6350000Y11430000D03*
X8890000Y13970000D03*
X8890000Y11430000D03*
X11430000Y13970000D03*
X11430000Y11430000D03*
X13970000Y13970000D03*
X13970000Y11430000D03*
X16510000Y13970000D03*
X16510000Y11430000D03*
X19050000Y13970000D03*
X19050000Y11430000D03*
X21590000Y13970000D03*
X21590000Y11430000D03*
D11*
X-19050000Y3810000D03*
D12*
X-19050000Y6350000D03*
X-21590000Y3810000D03*
X-21590000Y6350000D03*
X-24130000Y3810000D03*
X-24130000Y6350000D03*
D13*
X16510000Y5080000D03*
D14*
X11430000Y5080000D03*
D15*
X-13208000Y0D03*
X-10668000Y0D03*
X0Y0D03*
X-2540000Y0D03*
X-13208000Y18542000D03*
X-10668000Y18542000D03*
X0Y18542000D03*
X-2540000Y18542000D03*
M02*
