M48
;DRILL file {KiCad 4.0.2+dfsg1-stable} date Sat 09 Apr 2016 11:20:34 AM EDT
;FORMAT={-:-/ absolute / metric / decimal}
FMAT,2
METRIC,TZ
T1C1.000
T2C1.016
T3C1.524
%
G90
G05
M71
T1
X-13.208Y18.542
X-13.208Y0.
X-10.668Y18.542
X-10.668Y0.
X-2.54Y18.542
X-2.54Y0.
X0.Y18.542
X0.Y0.
T2
X-24.13Y6.35
X-24.13Y3.81
X-21.59Y6.35
X-21.59Y3.81
X-19.05Y6.35
X-19.05Y3.81
X-13.97Y6.35
X-13.97Y3.81
X-11.43Y6.35
X-11.43Y3.81
X-8.89Y6.35
X-8.89Y3.81
X-6.35Y6.35
X-6.35Y3.81
X-3.81Y6.35
X-3.81Y3.81
X6.35Y13.97
X6.35Y11.43
X8.89Y13.97
X8.89Y11.43
X11.43Y13.97
X11.43Y11.43
X13.97Y13.97
X13.97Y11.43
X16.51Y13.97
X16.51Y11.43
X19.05Y13.97
X19.05Y11.43
X21.59Y13.97
X21.59Y11.43
T3
X11.43Y5.08
X16.51Y5.08
T0
M30
