G04 #@! TF.FileFunction,Legend,Bot*
%FSLAX46Y46*%
G04 Gerber Fmt 4.6, Leading zero omitted, Abs format (unit mm)*
G04 Created by KiCad (PCBNEW 4.0.2+dfsg1-stable) date Sat 09 Apr 2016 11:20:45 AM EDT*
%MOMM*%
G01*
G04 APERTURE LIST*
%ADD10C,0.100000*%
%ADD11C,0.200000*%
%ADD12C,0.300000*%
%ADD13C,0.150000*%
G04 APERTURE END LIST*
D10*
D11*
X-24130000Y8890000D02*
X-25400000Y8890000D01*
X-16510000Y8890000D02*
X-19050000Y8890000D01*
X-16510000Y1270000D02*
X-16510000Y8890000D01*
X-25400000Y1270000D02*
X-16510000Y1270000D01*
D12*
X9132000Y3937143D02*
X9203429Y3794286D01*
X9203429Y3580000D01*
X9132000Y3365715D01*
X8989143Y3222857D01*
X8846286Y3151429D01*
X8560571Y3080000D01*
X8346286Y3080000D01*
X8060571Y3151429D01*
X7917714Y3222857D01*
X7774857Y3365715D01*
X7703429Y3580000D01*
X7703429Y3722857D01*
X7774857Y3937143D01*
X7846286Y4008572D01*
X8346286Y4008572D01*
X8346286Y3722857D01*
X7703429Y4651429D02*
X9203429Y4651429D01*
X7703429Y5508572D01*
X9203429Y5508572D01*
X7703429Y6222858D02*
X9203429Y6222858D01*
X9203429Y6580001D01*
X9132000Y6794286D01*
X8989143Y6937144D01*
X8846286Y7008572D01*
X8560571Y7080001D01*
X8346286Y7080001D01*
X8060571Y7008572D01*
X7917714Y6937144D01*
X7774857Y6794286D01*
X7703429Y6580001D01*
X7703429Y6222858D01*
X20236571Y7603713D02*
X20236571Y8460856D01*
X20236571Y8032284D02*
X18736571Y8032284D01*
X18950857Y8175141D01*
X19093714Y8317999D01*
X19165143Y8460856D01*
X18879429Y7032285D02*
X18808000Y6960856D01*
X18736571Y6817999D01*
X18736571Y6460856D01*
X18808000Y6317999D01*
X18879429Y6246570D01*
X19022286Y6175142D01*
X19165143Y6175142D01*
X19379429Y6246570D01*
X20236571Y7103713D01*
X20236571Y6175142D01*
X19665143Y5532285D02*
X19665143Y4389428D01*
X18879429Y3746571D02*
X18808000Y3675142D01*
X18736571Y3532285D01*
X18736571Y3175142D01*
X18808000Y3032285D01*
X18879429Y2960856D01*
X19022286Y2889428D01*
X19165143Y2889428D01*
X19379429Y2960856D01*
X20236571Y3817999D01*
X20236571Y2889428D01*
X19379429Y2032285D02*
X19308000Y2175143D01*
X19236571Y2246571D01*
X19093714Y2318000D01*
X19022286Y2318000D01*
X18879429Y2246571D01*
X18808000Y2175143D01*
X18736571Y2032285D01*
X18736571Y1746571D01*
X18808000Y1603714D01*
X18879429Y1532285D01*
X19022286Y1460857D01*
X19093714Y1460857D01*
X19236571Y1532285D01*
X19308000Y1603714D01*
X19379429Y1746571D01*
X19379429Y2032285D01*
X19450857Y2175143D01*
X19522286Y2246571D01*
X19665143Y2318000D01*
X19950857Y2318000D01*
X20093714Y2246571D01*
X20165143Y2175143D01*
X20236571Y2032285D01*
X20236571Y1746571D01*
X20165143Y1603714D01*
X20093714Y1532285D01*
X19950857Y1460857D01*
X19665143Y1460857D01*
X19522286Y1532285D01*
X19450857Y1603714D01*
X19379429Y1746571D01*
X18736571Y1032286D02*
X20236571Y532286D01*
X18736571Y32286D01*
D13*
X-2540000Y7620000D02*
X-15240000Y7620000D01*
X-15240000Y7620000D02*
X-15240000Y2540000D01*
X-15240000Y2540000D02*
X-5080000Y2540000D01*
X-2540000Y7620000D02*
X-2540000Y5080000D01*
X-2260000Y3810000D02*
X-2260000Y2260000D01*
X-2540000Y5080000D02*
X-5080000Y5080000D01*
X-5080000Y5080000D02*
X-5080000Y2540000D01*
X-2260000Y2260000D02*
X-3810000Y2260000D01*
X22860000Y10160000D02*
X5080000Y10160000D01*
X7620000Y15240000D02*
X22860000Y15240000D01*
X22860000Y10160000D02*
X22860000Y15240000D01*
X5080000Y10160000D02*
X5080000Y12700000D01*
X4800000Y13970000D02*
X4800000Y15520000D01*
X5080000Y12700000D02*
X7620000Y12700000D01*
X7620000Y12700000D02*
X7620000Y15240000D01*
X4800000Y15520000D02*
X6350000Y15520000D01*
X-20320000Y2540000D02*
X-25400000Y2540000D01*
X-17500000Y2260000D02*
X-17500000Y3810000D01*
X-17780000Y5080000D02*
X-20320000Y5080000D01*
X-20320000Y5080000D02*
X-20320000Y2540000D01*
X-25400000Y2540000D02*
X-25400000Y7620000D01*
X-25400000Y7620000D02*
X-20320000Y7620000D01*
X-17500000Y2260000D02*
X-19050000Y2260000D01*
X-17780000Y7620000D02*
X-17780000Y5080000D01*
X-20320000Y7620000D02*
X-17780000Y7620000D01*
X-8247143Y8437619D02*
X-8247143Y8961429D01*
X-8199524Y9056667D01*
X-8104286Y9104286D01*
X-7913809Y9104286D01*
X-7818571Y9056667D01*
X-8247143Y8485238D02*
X-8151905Y8437619D01*
X-7913809Y8437619D01*
X-7818571Y8485238D01*
X-7770952Y8580476D01*
X-7770952Y8675714D01*
X-7818571Y8770952D01*
X-7913809Y8818571D01*
X-8151905Y8818571D01*
X-8247143Y8866190D01*
X-9151905Y9104286D02*
X-9151905Y8437619D01*
X-8723333Y9104286D02*
X-8723333Y8580476D01*
X-8770952Y8485238D01*
X-8866190Y8437619D01*
X-9009048Y8437619D01*
X-9104286Y8485238D01*
X-9151905Y8532857D01*
X-9532857Y8437619D02*
X-10056667Y9104286D01*
X-9532857Y9104286D02*
X-10056667Y8437619D01*
X15089048Y16057619D02*
X15089048Y17057619D01*
X15089048Y16676667D02*
X14993810Y16724286D01*
X14803333Y16724286D01*
X14708095Y16676667D01*
X14660476Y16629048D01*
X14612857Y16533810D01*
X14612857Y16248095D01*
X14660476Y16152857D01*
X14708095Y16105238D01*
X14803333Y16057619D01*
X14993810Y16057619D01*
X15089048Y16105238D01*
X14184286Y16057619D02*
X14184286Y17057619D01*
X14184286Y16676667D02*
X14089048Y16724286D01*
X13898571Y16724286D01*
X13803333Y16676667D01*
X13755714Y16629048D01*
X13708095Y16533810D01*
X13708095Y16248095D01*
X13755714Y16152857D01*
X13803333Y16105238D01*
X13898571Y16057619D01*
X14089048Y16057619D01*
X14184286Y16105238D01*
X13279524Y16057619D02*
X13279524Y17057619D01*
X13279524Y16676667D02*
X13184286Y16724286D01*
X12993809Y16724286D01*
X12898571Y16676667D01*
X12850952Y16629048D01*
X12803333Y16533810D01*
X12803333Y16248095D01*
X12850952Y16152857D01*
X12898571Y16105238D01*
X12993809Y16057619D01*
X13184286Y16057619D01*
X13279524Y16105238D01*
X-20304286Y8437619D02*
X-20304286Y9104286D01*
X-20304286Y9437619D02*
X-20256667Y9390000D01*
X-20304286Y9342381D01*
X-20351905Y9390000D01*
X-20304286Y9437619D01*
X-20304286Y9342381D01*
X-21209048Y8485238D02*
X-21113810Y8437619D01*
X-20923333Y8437619D01*
X-20828095Y8485238D01*
X-20780476Y8532857D01*
X-20732857Y8628095D01*
X-20732857Y8913810D01*
X-20780476Y9009048D01*
X-20828095Y9056667D01*
X-20923333Y9104286D01*
X-21113810Y9104286D01*
X-21209048Y9056667D01*
X-21590000Y8485238D02*
X-21685238Y8437619D01*
X-21875714Y8437619D01*
X-21970953Y8485238D01*
X-22018572Y8580476D01*
X-22018572Y8628095D01*
X-21970953Y8723333D01*
X-21875714Y8770952D01*
X-21732857Y8770952D01*
X-21637619Y8818571D01*
X-21590000Y8913810D01*
X-21590000Y8961429D01*
X-21637619Y9056667D01*
X-21732857Y9104286D01*
X-21875714Y9104286D01*
X-21970953Y9056667D01*
X-22447143Y9104286D02*
X-22447143Y8104286D01*
X-22447143Y9056667D02*
X-22542381Y9104286D01*
X-22732858Y9104286D01*
X-22828096Y9056667D01*
X-22875715Y9009048D01*
X-22923334Y8913810D01*
X-22923334Y8628095D01*
X-22875715Y8532857D01*
X-22828096Y8485238D01*
X-22732858Y8437619D01*
X-22542381Y8437619D01*
X-22447143Y8485238D01*
M02*
