G04 #@! TF.FileFunction,Legend,Top*
%FSLAX46Y46*%
G04 Gerber Fmt 4.6, Leading zero omitted, Abs format (unit mm)*
G04 Created by KiCad (PCBNEW 4.0.2+dfsg1-stable) date Sat 09 Apr 2016 11:20:45 AM EDT*
%MOMM*%
G01*
G04 APERTURE LIST*
%ADD10C,0.100000*%
%ADD11C,0.300000*%
%ADD12C,0.150000*%
G04 APERTURE END LIST*
D10*
D11*
X15938572Y-107143D02*
X17081429Y-107143D01*
X16510000Y-678571D02*
X16510000Y464286D01*
X305715Y10981429D02*
X-408571Y10981429D01*
X-480000Y10267143D01*
X-408571Y10338571D01*
X-265714Y10410000D01*
X91429Y10410000D01*
X234286Y10338571D01*
X305715Y10267143D01*
X377143Y10124286D01*
X377143Y9767143D01*
X305715Y9624286D01*
X234286Y9552857D01*
X91429Y9481429D01*
X-265714Y9481429D01*
X-408571Y9552857D01*
X-480000Y9624286D01*
X1020000Y9481429D02*
X1020000Y10981429D01*
X1162857Y10052857D02*
X1591428Y9481429D01*
X1591428Y10481429D02*
X1020000Y9910000D01*
X2877143Y10981429D02*
X2591429Y10981429D01*
X2448572Y10910000D01*
X2377143Y10838571D01*
X2234286Y10624286D01*
X2162857Y10338571D01*
X2162857Y9767143D01*
X2234286Y9624286D01*
X2305714Y9552857D01*
X2448572Y9481429D01*
X2734286Y9481429D01*
X2877143Y9552857D01*
X2948572Y9624286D01*
X3020000Y9767143D01*
X3020000Y10124286D01*
X2948572Y10267143D01*
X2877143Y10338571D01*
X2734286Y10410000D01*
X2448572Y10410000D01*
X2305714Y10338571D01*
X2234286Y10267143D01*
X2162857Y10124286D01*
X9568571Y5457143D02*
X9568571Y4600000D01*
X9568571Y5028572D02*
X8068571Y5028572D01*
X8282857Y4885715D01*
X8425714Y4742857D01*
X8497143Y4600000D01*
X8068571Y6385714D02*
X8068571Y6528571D01*
X8140000Y6671428D01*
X8211429Y6742857D01*
X8354286Y6814286D01*
X8640000Y6885714D01*
X8997143Y6885714D01*
X9282857Y6814286D01*
X9425714Y6742857D01*
X9497143Y6671428D01*
X9568571Y6528571D01*
X9568571Y6385714D01*
X9497143Y6242857D01*
X9425714Y6171428D01*
X9282857Y6100000D01*
X8997143Y6028571D01*
X8640000Y6028571D01*
X8354286Y6100000D01*
X8211429Y6171428D01*
X8140000Y6242857D01*
X8068571Y6385714D01*
X9568571Y7528571D02*
X8068571Y7528571D01*
X8997143Y7671428D02*
X9568571Y8099999D01*
X8568571Y8099999D02*
X9140000Y7528571D01*
X10287143Y750000D02*
X10144286Y821429D01*
X9930000Y821429D01*
X9715715Y750000D01*
X9572857Y607143D01*
X9501429Y464286D01*
X9430000Y178571D01*
X9430000Y-35714D01*
X9501429Y-321429D01*
X9572857Y-464286D01*
X9715715Y-607143D01*
X9930000Y-678571D01*
X10072857Y-678571D01*
X10287143Y-607143D01*
X10358572Y-535714D01*
X10358572Y-35714D01*
X10072857Y-35714D01*
X11001429Y-678571D02*
X11001429Y821429D01*
X11858572Y-678571D01*
X11858572Y821429D01*
X12572858Y-678571D02*
X12572858Y821429D01*
X12930001Y821429D01*
X13144286Y750000D01*
X13287144Y607143D01*
X13358572Y464286D01*
X13430001Y178571D01*
X13430001Y-35714D01*
X13358572Y-321429D01*
X13287144Y-464286D01*
X13144286Y-607143D01*
X12930001Y-678571D01*
X12572858Y-678571D01*
X20998571Y1794287D02*
X20998571Y937144D01*
X20998571Y1365716D02*
X19498571Y1365716D01*
X19712857Y1222859D01*
X19855714Y1080001D01*
X19927143Y937144D01*
X19641429Y2365715D02*
X19570000Y2437144D01*
X19498571Y2580001D01*
X19498571Y2937144D01*
X19570000Y3080001D01*
X19641429Y3151430D01*
X19784286Y3222858D01*
X19927143Y3222858D01*
X20141429Y3151430D01*
X20998571Y2294287D01*
X20998571Y3222858D01*
X20427143Y3865715D02*
X20427143Y5008572D01*
X19641429Y5651429D02*
X19570000Y5722858D01*
X19498571Y5865715D01*
X19498571Y6222858D01*
X19570000Y6365715D01*
X19641429Y6437144D01*
X19784286Y6508572D01*
X19927143Y6508572D01*
X20141429Y6437144D01*
X20998571Y5580001D01*
X20998571Y6508572D01*
X20141429Y7365715D02*
X20070000Y7222857D01*
X19998571Y7151429D01*
X19855714Y7080000D01*
X19784286Y7080000D01*
X19641429Y7151429D01*
X19570000Y7222857D01*
X19498571Y7365715D01*
X19498571Y7651429D01*
X19570000Y7794286D01*
X19641429Y7865715D01*
X19784286Y7937143D01*
X19855714Y7937143D01*
X19998571Y7865715D01*
X20070000Y7794286D01*
X20141429Y7651429D01*
X20141429Y7365715D01*
X20212857Y7222857D01*
X20284286Y7151429D01*
X20427143Y7080000D01*
X20712857Y7080000D01*
X20855714Y7151429D01*
X20927143Y7222857D01*
X20998571Y7365715D01*
X20998571Y7651429D01*
X20927143Y7794286D01*
X20855714Y7865715D01*
X20712857Y7937143D01*
X20427143Y7937143D01*
X20284286Y7865715D01*
X20212857Y7794286D01*
X20141429Y7651429D01*
X19498571Y8365714D02*
X20998571Y8865714D01*
X19498571Y9365714D01*
D12*
X2090000Y6545000D02*
X90000Y6545000D01*
X90000Y8695000D02*
X2090000Y8695000D01*
X5275000Y5170000D02*
X5275000Y7170000D01*
X7425000Y7170000D02*
X7425000Y5170000D01*
X8890000Y7620000D02*
X19050000Y7620000D01*
X8890000Y8890000D02*
X8890000Y1270000D01*
X8890000Y1270000D02*
X19050000Y1270000D01*
X19050000Y1270000D02*
X19050000Y8890000D01*
X19050000Y8890000D02*
X8890000Y8890000D01*
X-6350000Y17780000D02*
X-4445000Y14605000D01*
X-6350000Y17780000D02*
X-8255000Y14605000D01*
X-6350000Y635000D02*
X-6350000Y17780000D01*
X-15240000Y-2540000D02*
X-15240000Y20320000D01*
X-15240000Y20320000D02*
X1270000Y20320000D01*
X1270000Y20320000D02*
X1270000Y-2540000D01*
X1270000Y-2540000D02*
X-15240000Y-2540000D01*
X923334Y7167619D02*
X590000Y7643810D01*
X351905Y7167619D02*
X351905Y8167619D01*
X732858Y8167619D01*
X828096Y8120000D01*
X875715Y8072381D01*
X923334Y7977143D01*
X923334Y7834286D01*
X875715Y7739048D01*
X828096Y7691429D01*
X732858Y7643810D01*
X351905Y7643810D01*
X1542381Y8167619D02*
X1637620Y8167619D01*
X1732858Y8120000D01*
X1780477Y8072381D01*
X1828096Y7977143D01*
X1875715Y7786667D01*
X1875715Y7548571D01*
X1828096Y7358095D01*
X1780477Y7262857D01*
X1732858Y7215238D01*
X1637620Y7167619D01*
X1542381Y7167619D01*
X1447143Y7215238D01*
X1399524Y7262857D01*
X1351905Y7358095D01*
X1304286Y7548571D01*
X1304286Y7786667D01*
X1351905Y7977143D01*
X1399524Y8072381D01*
X1447143Y8120000D01*
X1542381Y8167619D01*
X6802381Y6003334D02*
X6326190Y5670000D01*
X6802381Y5431905D02*
X5802381Y5431905D01*
X5802381Y5812858D01*
X5850000Y5908096D01*
X5897619Y5955715D01*
X5992857Y6003334D01*
X6135714Y6003334D01*
X6230952Y5955715D01*
X6278571Y5908096D01*
X6326190Y5812858D01*
X6326190Y5431905D01*
X6802381Y6955715D02*
X6802381Y6384286D01*
X6802381Y6670000D02*
X5802381Y6670000D01*
X5945238Y6574762D01*
X6040476Y6479524D01*
X6088095Y6384286D01*
X10970000Y214286D02*
X11350952Y214286D01*
X11112857Y547619D02*
X11112857Y-309524D01*
X11160476Y-404762D01*
X11255714Y-452381D01*
X11350952Y-452381D01*
X12065239Y-404762D02*
X11970001Y-452381D01*
X11779524Y-452381D01*
X11684286Y-404762D01*
X11636667Y-309524D01*
X11636667Y71429D01*
X11684286Y166667D01*
X11779524Y214286D01*
X11970001Y214286D01*
X12065239Y166667D01*
X12112858Y71429D01*
X12112858Y-23810D01*
X11636667Y-119048D01*
X12541429Y-452381D02*
X12541429Y214286D01*
X12541429Y23810D02*
X12589048Y119048D01*
X12636667Y166667D01*
X12731905Y214286D01*
X12827144Y214286D01*
X13160477Y-452381D02*
X13160477Y214286D01*
X13160477Y119048D02*
X13208096Y166667D01*
X13303334Y214286D01*
X13446192Y214286D01*
X13541430Y166667D01*
X13589049Y71429D01*
X13589049Y-452381D01*
X13589049Y71429D02*
X13636668Y166667D01*
X13731906Y214286D01*
X13874763Y214286D01*
X13970001Y166667D01*
X14017620Y71429D01*
X14017620Y-452381D01*
X14493810Y-452381D02*
X14493810Y214286D01*
X14493810Y547619D02*
X14446191Y500000D01*
X14493810Y452381D01*
X14541429Y500000D01*
X14493810Y547619D01*
X14493810Y452381D01*
X14970000Y214286D02*
X14970000Y-452381D01*
X14970000Y119048D02*
X15017619Y166667D01*
X15112857Y214286D01*
X15255715Y214286D01*
X15350953Y166667D01*
X15398572Y71429D01*
X15398572Y-452381D01*
X16303334Y-452381D02*
X16303334Y71429D01*
X16255715Y166667D01*
X16160477Y214286D01*
X15970000Y214286D01*
X15874762Y166667D01*
X16303334Y-404762D02*
X16208096Y-452381D01*
X15970000Y-452381D01*
X15874762Y-404762D01*
X15827143Y-309524D01*
X15827143Y-214286D01*
X15874762Y-119048D01*
X15970000Y-71429D01*
X16208096Y-71429D01*
X16303334Y-23810D01*
X16922381Y-452381D02*
X16827143Y-404762D01*
X16779524Y-309524D01*
X16779524Y547619D01*
X-4627619Y7794762D02*
X-5627619Y7794762D01*
X-4675238Y7794762D02*
X-4627619Y7699524D01*
X-4627619Y7509047D01*
X-4675238Y7413809D01*
X-4722857Y7366190D01*
X-4818095Y7318571D01*
X-5103810Y7318571D01*
X-5199048Y7366190D01*
X-5246667Y7413809D01*
X-5294286Y7509047D01*
X-5294286Y7699524D01*
X-5246667Y7794762D01*
X-4675238Y8699524D02*
X-4627619Y8604286D01*
X-4627619Y8413809D01*
X-4675238Y8318571D01*
X-4722857Y8270952D01*
X-4818095Y8223333D01*
X-5103810Y8223333D01*
X-5199048Y8270952D01*
X-5246667Y8318571D01*
X-5294286Y8413809D01*
X-5294286Y8604286D01*
X-5246667Y8699524D01*
X-4627619Y9556667D02*
X-5627619Y9556667D01*
X-4675238Y9556667D02*
X-4627619Y9461429D01*
X-4627619Y9270952D01*
X-4675238Y9175714D01*
X-4722857Y9128095D01*
X-4818095Y9080476D01*
X-5103810Y9080476D01*
X-5199048Y9128095D01*
X-5246667Y9175714D01*
X-5294286Y9270952D01*
X-5294286Y9461429D01*
X-5246667Y9556667D01*
X-4675238Y10461429D02*
X-4627619Y10366191D01*
X-4627619Y10175714D01*
X-4675238Y10080476D01*
X-4722857Y10032857D01*
X-4818095Y9985238D01*
X-5103810Y9985238D01*
X-5199048Y10032857D01*
X-5246667Y10080476D01*
X-5294286Y10175714D01*
X-5294286Y10366191D01*
X-5246667Y10461429D01*
X-7834286Y4437619D02*
X-6834286Y4437619D01*
X-7786667Y4437619D02*
X-7834286Y4532857D01*
X-7834286Y4723334D01*
X-7786667Y4818572D01*
X-7739048Y4866191D01*
X-7643810Y4913810D01*
X-7358095Y4913810D01*
X-7262857Y4866191D01*
X-7215238Y4818572D01*
X-7167619Y4723334D01*
X-7167619Y4532857D01*
X-7215238Y4437619D01*
X-7167619Y5342381D02*
X-8167619Y5342381D01*
X-7167619Y5770953D02*
X-7691429Y5770953D01*
X-7786667Y5723334D01*
X-7834286Y5628096D01*
X-7834286Y5485238D01*
X-7786667Y5390000D01*
X-7739048Y5342381D01*
X-7167619Y6247143D02*
X-7834286Y6247143D01*
X-8167619Y6247143D02*
X-8120000Y6199524D01*
X-8072381Y6247143D01*
X-8120000Y6294762D01*
X-8167619Y6247143D01*
X-8072381Y6247143D01*
X-7167619Y7151905D02*
X-8167619Y7151905D01*
X-7215238Y7151905D02*
X-7167619Y7056667D01*
X-7167619Y6866190D01*
X-7215238Y6770952D01*
X-7262857Y6723333D01*
X-7358095Y6675714D01*
X-7643810Y6675714D01*
X-7739048Y6723333D01*
X-7786667Y6770952D01*
X-7834286Y6866190D01*
X-7834286Y7056667D01*
X-7786667Y7151905D01*
X-7167619Y7628095D02*
X-7834286Y7628095D01*
X-8167619Y7628095D02*
X-8120000Y7580476D01*
X-8072381Y7628095D01*
X-8120000Y7675714D01*
X-8167619Y7628095D01*
X-8072381Y7628095D01*
X-7167619Y8532857D02*
X-7691429Y8532857D01*
X-7786667Y8485238D01*
X-7834286Y8390000D01*
X-7834286Y8199523D01*
X-7786667Y8104285D01*
X-7215238Y8532857D02*
X-7167619Y8437619D01*
X-7167619Y8199523D01*
X-7215238Y8104285D01*
X-7310476Y8056666D01*
X-7405714Y8056666D01*
X-7500952Y8104285D01*
X-7548571Y8199523D01*
X-7548571Y8437619D01*
X-7596190Y8532857D01*
X-7215238Y8961428D02*
X-7167619Y9056666D01*
X-7167619Y9247142D01*
X-7215238Y9342381D01*
X-7310476Y9390000D01*
X-7358095Y9390000D01*
X-7453333Y9342381D01*
X-7500952Y9247142D01*
X-7500952Y9104285D01*
X-7548571Y9009047D01*
X-7643810Y8961428D01*
X-7691429Y8961428D01*
X-7786667Y9009047D01*
X-7834286Y9104285D01*
X-7834286Y9247142D01*
X-7786667Y9342381D01*
X-7262857Y9818571D02*
X-7215238Y9866190D01*
X-7167619Y9818571D01*
X-7215238Y9770952D01*
X-7262857Y9818571D01*
X-7167619Y9818571D01*
X-7786667Y9818571D02*
X-7739048Y9866190D01*
X-7691429Y9818571D01*
X-7739048Y9770952D01*
X-7786667Y9818571D01*
X-7691429Y9818571D01*
X-7167619Y10723333D02*
X-8167619Y10723333D01*
X-7215238Y10723333D02*
X-7167619Y10628095D01*
X-7167619Y10437618D01*
X-7215238Y10342380D01*
X-7262857Y10294761D01*
X-7358095Y10247142D01*
X-7643810Y10247142D01*
X-7739048Y10294761D01*
X-7786667Y10342380D01*
X-7834286Y10437618D01*
X-7834286Y10628095D01*
X-7786667Y10723333D01*
X-7215238Y11628095D02*
X-7167619Y11532857D01*
X-7167619Y11342380D01*
X-7215238Y11247142D01*
X-7262857Y11199523D01*
X-7358095Y11151904D01*
X-7643810Y11151904D01*
X-7739048Y11199523D01*
X-7786667Y11247142D01*
X-7834286Y11342380D01*
X-7834286Y11532857D01*
X-7786667Y11628095D01*
X-7167619Y12485238D02*
X-8167619Y12485238D01*
X-7215238Y12485238D02*
X-7167619Y12390000D01*
X-7167619Y12199523D01*
X-7215238Y12104285D01*
X-7262857Y12056666D01*
X-7358095Y12009047D01*
X-7643810Y12009047D01*
X-7739048Y12056666D01*
X-7786667Y12104285D01*
X-7834286Y12199523D01*
X-7834286Y12390000D01*
X-7786667Y12485238D01*
X-7215238Y13390000D02*
X-7167619Y13294762D01*
X-7167619Y13104285D01*
X-7215238Y13009047D01*
X-7262857Y12961428D01*
X-7358095Y12913809D01*
X-7643810Y12913809D01*
X-7739048Y12961428D01*
X-7786667Y13009047D01*
X-7834286Y13104285D01*
X-7834286Y13294762D01*
X-7786667Y13390000D01*
M02*
